<svg width="256" height="256" viewBox="0 0 256 256" fill="none" xmlns="http://www.w3.org/2000/svg">
  <circle cx="128" cy="128" r="108" fill="#0B6E4F"/>
  <circle cx="128" cy="128" r="84" fill="#F5F7F4"/>
  <path d="M92 88C92 81.3726 97.3726 76 104 76H160C166.627 76 172 81.3726 172 88C172 90.9094 170.947 93.7207 169.036 95.9162L116.17 156H160C166.627 156 172 161.373 172 168C172 174.627 166.627 180 160 180H96C89.3726 180 84 174.627 84 168C84 165.183 84.9896 162.455 86.7945 160.293L140.121 100H104C97.3726 100 92 94.6274 92 88Z" fill="#0B6E4F"/>
</svg>
