<svg width="64" height="64" viewBox="0 0 64 64" fill="none" xmlns="http://www.w3.org/2000/svg">
  <rect width="64" height="64" rx="14" fill="#F5F7F4"/>
  <circle cx="32" cy="32" r="22" fill="#0B6E4F"/>
  <circle cx="32" cy="32" r="16.5" fill="#F5F7F4"/>
  <path d="M24.5 24.5C24.5 23.1193 25.6193 22 27 22H38C39.3807 22 40.5 23.1193 40.5 24.5C40.5 25.1116 40.2757 25.7021 39.8693 26.1593L29.4531 38H37.5C38.8807 38 40 39.1193 40 40.5C40 41.8807 38.8807 43 37.5 43H26.5C25.1193 43 24 41.8807 24 40.5C24 39.9013 24.2147 39.3225 24.6049 38.8683L35.1148 27H27C25.6193 27 24.5 25.8807 24.5 24.5Z" fill="#0B6E4F"/>
</svg>
