<svg width="256" height="256" viewBox="0 0 256 256" fill="none" xmlns="http://www.w3.org/2000/svg">
  <path d="M128 20L204 50V113C204 165.857 173.5 211.308 128 234C82.5 211.308 52 165.857 52 113V50L128 20Z" fill="#A12828"/>
  <path d="M128 52L180 72V113.385C180 152.173 159.023 187.596 128 205.231C96.9765 187.596 76 152.173 76 113.385V72L128 52Z" fill="#FFF8F6"/>
  <path d="M128 80L158 91.5385V115.346C158 138.047 146.078 159.105 128 172.308C109.922 159.105 98 138.047 98 115.346V91.5385L128 80Z" fill="#A12828"/>
  <path d="M118 100C118 94.4772 122.477 90 128 90C133.523 90 138 94.4772 138 100V111H143C145.761 111 148 113.239 148 116V133C148 135.761 145.761 138 143 138H113C110.239 138 108 135.761 108 133V116C108 113.239 110.239 111 113 111H118V100Z" fill="#FFF8F6"/>
  <path d="M116 111H140V101C140 94.3726 134.627 89 128 89C121.373 89 116 94.3726 116 101V111Z" fill="#FFF8F6"/>
</svg>
