<svg width="64" height="64" viewBox="0 0 64 64" fill="none" xmlns="http://www.w3.org/2000/svg">
  <rect width="64" height="64" rx="14" fill="#F8F4F2"/>
  <path d="M32 8L49 14.7V29.4C49 41.6529 42.1429 52.2286 32 57C21.8571 52.2286 15 41.6529 15 29.4V14.7L32 8Z" fill="#A12828"/>
  <path d="M32 15L43.5 19.5V29.4594C43.5 37.663 39.1576 45.19 32 49.0455C24.8424 45.19 20.5 37.663 20.5 29.4594V19.5L32 15Z" fill="#FFF8F6"/>
  <path d="M32 21L38.5 23.5439V29.2321C38.5 34.2718 35.9302 39.0266 32 42C28.0698 39.0266 25.5 34.2718 25.5 29.2321V23.5439L32 21Z" fill="#A12828"/>
  <path d="M28.8 26.2C28.8 24.4327 30.2327 23 32 23C33.7673 23 35.2 24.4327 35.2 26.2V31H36.7C37.6941 31 38.5 31.8059 38.5 32.8V39.2C38.5 40.1941 37.6941 41 36.7 41H27.3C26.3059 41 25.5 40.1941 25.5 39.2V32.8C25.5 31.8059 26.3059 31 27.3 31H28.8V26.2Z" fill="#FFF8F6"/>
</svg>
